<svg xmlns="http://www.w3.org/2000/svg" xmlns:xlink="http://www.w3.org/1999/xlink" viewBox="0 0 701.62 364.6"><defs><style>.cls-1{fill:url(#Безымянный_градиент_29);}.cls-2{opacity:0.1;}.cls-3{fill:#dadada;}</style><linearGradient id="Безымянный_градиент_29" x1="617.36" y1="-84.26" x2="84.26" y2="448.85" gradientUnits="userSpaceOnUse"><stop offset="0" stop-color="#82368c"/><stop offset="1" stop-color="#8701b1"/></linearGradient></defs><title>hello</title><g id="Слой_2" data-name="Слой 2"><g id="Слой_1-2" data-name="Слой 1"><rect class="cls-1" width="701.62" height="364.6"/><g class="cls-2"><path class="cls-3" d="M104.9,65.7V172.12H69V132.9H35.88v39.22H0V65.7H35.88v37.7H69V65.7Z"/><path class="cls-3" d="M222.11,145.06v27.06H133.63V65.7h86.5V92.76H168.9v12.47h45v25.84h-45v14Z"/><path class="cls-3" d="M247.34,65.7h35.88v78.6h48v27.82H247.34Z"/><path class="cls-3" d="M352.54,65.7h35.88v78.6h48v27.82H352.54Z"/><path class="cls-3" d="M481.16,167.41A53.28,53.28,0,0,1,452,118.91a53.25,53.25,0,0,1,29.19-48.49,70.17,70.17,0,0,1,61.72,0,53.25,53.25,0,0,1,29.19,48.49,53.28,53.28,0,0,1-29.19,48.5,70.26,70.26,0,0,1-61.72,0Zm42.94-25.16a23.31,23.31,0,0,0,8.59-9.28,29.5,29.5,0,0,0,3.2-14.06,29.5,29.5,0,0,0-3.2-14.06,23.35,23.35,0,0,0-8.59-9.27,24,24,0,0,0-24.17,0,23.42,23.42,0,0,0-8.59,9.27,29.5,29.5,0,0,0-3.19,14.06A29.5,29.5,0,0,0,491.34,133a23.38,23.38,0,0,0,8.59,9.28,24,24,0,0,0,24.17,0Z"/><path class="cls-3" d="M590.16,151.87l20.22-30.4L590.16,91.06h30.4l21,30.41-21,30.4Zm40.29,0,20.21-30.4L630.45,91.06h30.4l21,30.41-21,30.4Z"/></g></g></g></svg>