<svg xmlns="http://www.w3.org/2000/svg" viewBox="0 0 59.84 59.84"><defs><style>.cls-1{fill:#fff;}</style></defs><title>instagram</title><g id="Слой_2" data-name="Слой 2"><g id="Слой_1-2" data-name="Слой 1"><path class="cls-1" d="M41.14,0H18.7A18.7,18.7,0,0,0,0,18.7V41.14a18.7,18.7,0,0,0,18.7,18.7H41.14a18.7,18.7,0,0,0,18.7-18.7V18.7A18.7,18.7,0,0,0,41.14,0ZM54.23,41.14A13.1,13.1,0,0,1,41.14,54.23H18.7A13.1,13.1,0,0,1,5.61,41.14V18.7A13.1,13.1,0,0,1,18.7,5.61H41.14A13.1,13.1,0,0,1,54.23,18.7Z"/><path class="cls-1" d="M29.92,15a15,15,0,1,0,15,15A15,15,0,0,0,29.92,15Zm0,24.31a9.35,9.35,0,1,1,9.35-9.35A9.36,9.36,0,0,1,29.92,39.27Z"/><circle class="cls-1" cx="46" cy="13.84" r="1.99"/></g></g></svg>