<svg xmlns="http://www.w3.org/2000/svg" viewBox="0 0 59.84 59.84"><defs><style>.cls-1{fill:#fff;}</style></defs><title>vk</title><g id="Слой_2" data-name="Слой 2"><g id="Слой_1-2" data-name="Слой 1"><path class="cls-1" d="M56.66,0H3.18A3.18,3.18,0,0,0,0,3.18V56.66a3.18,3.18,0,0,0,3.18,3.18H56.66a3.18,3.18,0,0,0,3.18-3.18V3.18A3.18,3.18,0,0,0,56.66,0Zm-9,33.71a64.73,64.73,0,0,1,4.82,4.84A13.84,13.84,0,0,1,54.21,41c.66,1.29.06,2.7-1.09,2.78H46A5.51,5.51,0,0,1,41.39,42c-1-1-1.91-2.09-2.87-3.13a6.72,6.72,0,0,0-1.29-1.15,1.49,1.49,0,0,0-2.38.58,7.46,7.46,0,0,0-.76,3.34c-.08,1.69-.59,2.13-2.28,2.21a18.43,18.43,0,0,1-10.26-2.2,22.65,22.65,0,0,1-6.9-6.46A87.28,87.28,0,0,1,5.57,19c-.57-1.27-.16-2,1.25-2,2.34,0,4.68,0,7,0a2,2,0,0,1,1.94,1.45,44.17,44.17,0,0,0,4.76,8.82,7.52,7.52,0,0,0,1.8,2,1.09,1.09,0,0,0,1.85-.54,5.91,5.91,0,0,0,.41-1.85,27.54,27.54,0,0,0-.11-6.48,2.69,2.69,0,0,0-2.3-2.47c-.68-.13-.58-.38-.25-.78A2.58,2.58,0,0,1,24.14,16h8.1c1.27.25,1.56.82,1.73,2.11v9c0,.49.25,2,1.14,2.29.72.24,1.19-.33,1.62-.79a28,28,0,0,0,4.56-7c.55-1.11,1-2.26,1.48-3.41a1.73,1.73,0,0,1,1.83-1.25h7.8a4.05,4.05,0,0,1,.69,0c1.31.22,1.67.79,1.26,2.07a19.33,19.33,0,0,1-3.1,5.37c-1.3,1.8-2.69,3.54-4,5.35C46.1,31.44,46.19,32.27,47.66,33.71Z"/></g></g></svg>