<svg xmlns="http://www.w3.org/2000/svg" viewBox="0 0 59.84 59.84"><defs><style>.cls-1{fill:#fff;}</style></defs><title>whhatsap</title><g id="Слой_2" data-name="Слой 2"><g id="Слой_1-2" data-name="Слой 1"><path class="cls-1" d="M29.93,0h0A29.9,29.9,0,0,0,5.7,47.46L2,58.58l11.5-3.68A29.92,29.92,0,1,0,29.93,0ZM47.34,42.25c-.72,2-3.59,3.73-5.87,4.23-1.57.33-3.61.59-10.48-2.26-8.8-3.64-14.46-12.57-14.9-13.15s-3.55-4.73-3.55-9a9.55,9.55,0,0,1,3.06-7.28,4.32,4.32,0,0,1,3.06-1.07c.37,0,.7,0,1,0,.88,0,1.32.09,1.9,1.48.72,1.74,2.48,6,2.69,6.47a1.82,1.82,0,0,1,.13,1.62,5.42,5.42,0,0,1-1,1.37c-.44.51-.86.9-1.31,1.45s-.86,1-.35,1.86a26.54,26.54,0,0,0,4.86,6,21.91,21.91,0,0,0,7,4.33A1.89,1.89,0,0,0,35.73,38a35.28,35.28,0,0,0,2.34-3.1,1.67,1.67,0,0,1,2.15-.65c.81.28,5.08,2.39,6,2.83s1.46.65,1.67,1A7.45,7.45,0,0,1,47.34,42.25Z"/></g></g></svg>